<mxfile host="app.diagrams.net" modified="2023-06-02T19:45:32.061Z" agent="Mozilla/5.0 (Windows NT 10.0; Win64; x64) AppleWebKit/537.36 (KHTML, like Gecko) Chrome/113.0.0.0 Safari/537.36" etag="WqTFYBQ9lDw4A-ZR66oJ" version="21.3.2" type="github">
  <diagram name="PÃ¡gina-1" id="MT6m2zrHwECblgyKmkDN">
    <mxGraphModel dx="1793" dy="1158" grid="1" gridSize="10" guides="1" tooltips="1" connect="1" arrows="1" fold="1" page="1" pageScale="1" pageWidth="827" pageHeight="1169" math="0" shadow="0">
      <root>
        <mxCell id="0" />
        <mxCell id="1" parent="0" />
        <mxCell id="cEreoVwPH2V9dTDcCDwE-4" value="" style="group" vertex="1" connectable="0" parent="1">
          <mxGeometry x="180" y="230" width="340" height="220" as="geometry" />
        </mxCell>
        <mxCell id="cEreoVwPH2V9dTDcCDwE-5" value="" style="rounded=1;whiteSpace=wrap;html=1;fillColor=#3D8BCD;arcSize=9;strokeColor=#004C99;" vertex="1" parent="cEreoVwPH2V9dTDcCDwE-4">
          <mxGeometry width="340" height="110" as="geometry" />
        </mxCell>
        <mxCell id="cEreoVwPH2V9dTDcCDwE-6" value="&lt;font color=&quot;#ffffff&quot;&gt;&lt;span style=&quot;font-size: 16px;&quot;&gt;data&lt;/span&gt;&lt;/font&gt;" style="text;html=1;strokeColor=none;fillColor=none;align=center;verticalAlign=middle;whiteSpace=wrap;rounded=0;fontStyle=1;fontSize=14;fontFamily=Courier New;" vertex="1" parent="cEreoVwPH2V9dTDcCDwE-4">
          <mxGeometry x="273.00438320209975" y="84" width="68.24146981627297" height="20" as="geometry" />
        </mxCell>
        <mxCell id="cEreoVwPH2V9dTDcCDwE-7" value="FlightCacheData.js" style="whiteSpace=wrap;html=1;align=center;fillColor=#FFC957;strokeColor=#FFAD00;fontStyle=1" vertex="1" parent="cEreoVwPH2V9dTDcCDwE-4">
          <mxGeometry x="13.65" y="20" width="126.35" height="42" as="geometry" />
        </mxCell>
        <mxCell id="cEreoVwPH2V9dTDcCDwE-12" value="readApiLocalOpenSky.js" style="whiteSpace=wrap;html=1;align=center;fillColor=#FFC957;strokeColor=#FFAD00;fontStyle=1" vertex="1" parent="cEreoVwPH2V9dTDcCDwE-4">
          <mxGeometry x="150" y="20" width="166.35" height="42" as="geometry" />
        </mxCell>
        <UserObject label="mainScene.js" link="gross_discount" id="cEreoVwPH2V9dTDcCDwE-2">
          <mxCell style="shape=process;whiteSpace=wrap;html=1;backgroundOutline=1;fillColor=#FFC957;strokeColor=#FFAD00;fontStyle=1" vertex="1" parent="1">
            <mxGeometry x="354" y="460" width="120" height="44" as="geometry" />
          </mxCell>
        </UserObject>
        <mxCell id="cEreoVwPH2V9dTDcCDwE-14" value="Use" style="endArrow=open;endSize=12;dashed=1;rounded=1;entryX=0.5;entryY=1;entryDx=0;entryDy=0;exitX=0.5;exitY=0;exitDx=0;exitDy=0;edgeStyle=orthogonalEdgeStyle;jumpStyle=arc;jumpSize=14;fontStyle=0;fontSize=11;labelBackgroundColor=default;labelBorderColor=none;shadow=0;verticalAlign=bottom;horizontal=1;" edge="1" parent="1" source="cEreoVwPH2V9dTDcCDwE-2" target="cEreoVwPH2V9dTDcCDwE-12">
          <mxGeometry width="160" relative="1" as="geometry">
            <mxPoint x="330" y="480" as="sourcePoint" />
            <mxPoint x="490" y="480" as="targetPoint" />
            <Array as="points">
              <mxPoint x="414" y="292" />
            </Array>
          </mxGeometry>
        </mxCell>
        <mxCell id="cEreoVwPH2V9dTDcCDwE-17" value="Use" style="endArrow=open;endSize=12;dashed=1;rounded=1;entryX=0.5;entryY=1;entryDx=0;entryDy=0;exitX=0.25;exitY=0;exitDx=0;exitDy=0;edgeStyle=orthogonalEdgeStyle;jumpStyle=arc;jumpSize=14;fontStyle=0;fontSize=11;labelBackgroundColor=default;labelBorderColor=none;shadow=0;verticalAlign=bottom;horizontal=1;" edge="1" parent="1" source="cEreoVwPH2V9dTDcCDwE-2" target="cEreoVwPH2V9dTDcCDwE-7">
          <mxGeometry width="160" relative="1" as="geometry">
            <mxPoint x="394" y="470" as="sourcePoint" />
            <mxPoint x="393" y="202" as="targetPoint" />
            <Array as="points">
              <mxPoint x="384" y="420" />
              <mxPoint x="257" y="420" />
            </Array>
          </mxGeometry>
        </mxCell>
        <mxCell id="cEreoVwPH2V9dTDcCDwE-18" value="" style="group" vertex="1" connectable="0" parent="1">
          <mxGeometry x="560" y="100" width="340" height="280" as="geometry" />
        </mxCell>
        <mxCell id="cEreoVwPH2V9dTDcCDwE-19" value="" style="rounded=1;whiteSpace=wrap;html=1;fillColor=#3D8BCD;arcSize=9;strokeColor=#004C99;" vertex="1" parent="cEreoVwPH2V9dTDcCDwE-18">
          <mxGeometry width="340" height="140" as="geometry" />
        </mxCell>
        <mxCell id="cEreoVwPH2V9dTDcCDwE-20" value="&lt;font color=&quot;#ffffff&quot;&gt;&lt;span style=&quot;font-size: 16px;&quot;&gt;configuration&lt;/span&gt;&lt;/font&gt;" style="text;html=1;strokeColor=none;fillColor=none;align=center;verticalAlign=middle;whiteSpace=wrap;rounded=0;fontStyle=1;fontSize=14;fontFamily=Courier New;" vertex="1" parent="cEreoVwPH2V9dTDcCDwE-18">
          <mxGeometry x="233.75438320209975" y="112.54818181818182" width="68.24146981627297" height="25.454545454545453" as="geometry" />
        </mxCell>
        <mxCell id="cEreoVwPH2V9dTDcCDwE-21" value="openSkyModel.js" style="whiteSpace=wrap;html=1;align=center;fillColor=#FFC957;strokeColor=#FFAD00;fontStyle=1" vertex="1" parent="cEreoVwPH2V9dTDcCDwE-18">
          <mxGeometry x="30" y="85.27000000000001" width="126.35" height="42" as="geometry" />
        </mxCell>
        <mxCell id="cEreoVwPH2V9dTDcCDwE-25" value="" style="edgeStyle=orthogonalEdgeStyle;rounded=0;orthogonalLoop=1;jettySize=auto;exitX=0.5;exitY=1;exitDx=0;exitDy=0;entryX=0.5;entryY=0;entryDx=0;entryDy=0;jumpStyle=arc;jumpSize=14;fontStyle=0;fontSize=11;labelBackgroundColor=default;labelBorderColor=none;shadow=0;verticalAlign=bottom;horizontal=1;" edge="1" parent="cEreoVwPH2V9dTDcCDwE-18" source="cEreoVwPH2V9dTDcCDwE-22" target="cEreoVwPH2V9dTDcCDwE-21">
          <mxGeometry relative="1" as="geometry" />
        </mxCell>
        <mxCell id="cEreoVwPH2V9dTDcCDwE-22" value="madridConf.js" style="whiteSpace=wrap;html=1;align=center;fillColor=#FFC957;strokeColor=#FFAD00;fontStyle=1" vertex="1" parent="cEreoVwPH2V9dTDcCDwE-18">
          <mxGeometry x="38.18" y="10" width="110" height="42" as="geometry" />
        </mxCell>
        <mxCell id="cEreoVwPH2V9dTDcCDwE-24" value="" style="edgeStyle=orthogonalEdgeStyle;rounded=1;orthogonalLoop=1;jettySize=auto;entryX=1;entryY=0.5;entryDx=0;entryDy=0;jumpStyle=arc;jumpSize=14;fontStyle=0;fontSize=11;labelBackgroundColor=default;labelBorderColor=none;shadow=0;verticalAlign=bottom;horizontal=1;" edge="1" parent="cEreoVwPH2V9dTDcCDwE-18" source="cEreoVwPH2V9dTDcCDwE-23" target="cEreoVwPH2V9dTDcCDwE-21">
          <mxGeometry relative="1" as="geometry">
            <Array as="points">
              <mxPoint x="180" y="31" />
              <mxPoint x="180" y="106" />
              <mxPoint x="156" y="106" />
            </Array>
          </mxGeometry>
        </mxCell>
        <mxCell id="cEreoVwPH2V9dTDcCDwE-23" value="vatryConf.js" style="whiteSpace=wrap;html=1;align=center;fillColor=#FFC957;strokeColor=#FFAD00;fontStyle=1" vertex="1" parent="cEreoVwPH2V9dTDcCDwE-18">
          <mxGeometry x="187" y="10" width="110" height="42" as="geometry" />
        </mxCell>
        <mxCell id="cEreoVwPH2V9dTDcCDwE-26" value="Use" style="endArrow=open;endSize=12;dashed=1;rounded=1;exitX=0.75;exitY=0;exitDx=0;exitDy=0;edgeStyle=orthogonalEdgeStyle;jumpStyle=arc;jumpSize=14;fontStyle=0;fontSize=11;labelBackgroundColor=default;labelBorderColor=none;shadow=0;verticalAlign=bottom;horizontal=1;entryX=0.25;entryY=1;entryDx=0;entryDy=0;" edge="1" parent="1" source="cEreoVwPH2V9dTDcCDwE-2" target="cEreoVwPH2V9dTDcCDwE-21">
          <mxGeometry width="160" relative="1" as="geometry">
            <mxPoint x="394" y="470" as="sourcePoint" />
            <mxPoint x="393" y="202" as="targetPoint" />
            <Array as="points">
              <mxPoint x="444" y="420" />
              <mxPoint x="622" y="420" />
              <mxPoint x="622" y="227" />
            </Array>
          </mxGeometry>
        </mxCell>
        <mxCell id="cEreoVwPH2V9dTDcCDwE-27" value="" style="group" vertex="1" connectable="0" parent="1">
          <mxGeometry x="10" y="431" width="200" height="220" as="geometry" />
        </mxCell>
        <mxCell id="cEreoVwPH2V9dTDcCDwE-28" value="" style="rounded=1;whiteSpace=wrap;html=1;fillColor=#3D8BCD;arcSize=9;strokeColor=#004C99;" vertex="1" parent="cEreoVwPH2V9dTDcCDwE-27">
          <mxGeometry width="200" height="110" as="geometry" />
        </mxCell>
        <mxCell id="cEreoVwPH2V9dTDcCDwE-29" value="&lt;font color=&quot;#ffffff&quot;&gt;&lt;span style=&quot;font-size: 16px;&quot;&gt;gis&lt;/span&gt;&lt;/font&gt;" style="text;html=1;strokeColor=none;fillColor=none;align=center;verticalAlign=middle;whiteSpace=wrap;rounded=0;fontStyle=1;fontSize=14;fontFamily=Courier New;" vertex="1" parent="cEreoVwPH2V9dTDcCDwE-27">
          <mxGeometry x="155.29669600123515" y="85" width="40.14204106839586" height="20" as="geometry" />
        </mxCell>
        <mxCell id="cEreoVwPH2V9dTDcCDwE-30" value="mapConversion.js" style="whiteSpace=wrap;html=1;align=center;fillColor=#FFC957;strokeColor=#FFAD00;fontStyle=1" vertex="1" parent="cEreoVwPH2V9dTDcCDwE-27">
          <mxGeometry x="36.83" y="30" width="126.35" height="42" as="geometry" />
        </mxCell>
        <mxCell id="cEreoVwPH2V9dTDcCDwE-32" value="Use" style="endArrow=open;endSize=12;dashed=1;rounded=1;exitX=0;exitY=0.5;exitDx=0;exitDy=0;edgeStyle=orthogonalEdgeStyle;jumpStyle=arc;jumpSize=14;fontStyle=0;fontSize=11;labelBackgroundColor=default;labelBorderColor=none;shadow=0;verticalAlign=bottom;horizontal=1;" edge="1" parent="1" source="cEreoVwPH2V9dTDcCDwE-2" target="cEreoVwPH2V9dTDcCDwE-30">
          <mxGeometry width="160" relative="1" as="geometry">
            <mxPoint x="364" y="470" as="sourcePoint" />
            <mxPoint x="237" y="202" as="targetPoint" />
          </mxGeometry>
        </mxCell>
        <mxCell id="cEreoVwPH2V9dTDcCDwE-33" value="" style="group" vertex="1" connectable="0" parent="1">
          <mxGeometry x="205" y="584" width="350" height="466" as="geometry" />
        </mxCell>
        <mxCell id="cEreoVwPH2V9dTDcCDwE-34" value="" style="rounded=1;whiteSpace=wrap;html=1;fillColor=#3D8BCD;arcSize=9;strokeColor=#004C99;" vertex="1" parent="cEreoVwPH2V9dTDcCDwE-33">
          <mxGeometry width="350" height="233" as="geometry" />
        </mxCell>
        <mxCell id="cEreoVwPH2V9dTDcCDwE-35" value="&lt;font color=&quot;#ffffff&quot;&gt;&lt;span style=&quot;font-size: 16px;&quot;&gt;map-ground&lt;/span&gt;&lt;/font&gt;" style="text;html=1;strokeColor=none;fillColor=none;align=center;verticalAlign=middle;whiteSpace=wrap;rounded=0;fontStyle=1;fontSize=14;fontFamily=Courier New;" vertex="1" parent="cEreoVwPH2V9dTDcCDwE-33">
          <mxGeometry x="211.99999999999997" y="194.22424242424242" width="142.0125" height="42.36363636363637" as="geometry" />
        </mxCell>
        <mxCell id="cEreoVwPH2V9dTDcCDwE-37" value="camera-height.js" style="whiteSpace=wrap;html=1;align=center;fillColor=#FFC957;strokeColor=#FFAD00;fontStyle=1" vertex="1" parent="cEreoVwPH2V9dTDcCDwE-33">
          <mxGeometry x="20.329999999999984" y="147.22000000000003" width="126.35" height="42" as="geometry" />
        </mxCell>
        <mxCell id="cEreoVwPH2V9dTDcCDwE-38" value="heightManager.js" style="whiteSpace=wrap;html=1;align=center;fillColor=#FFC957;strokeColor=#FFAD00;fontStyle=1" vertex="1" parent="cEreoVwPH2V9dTDcCDwE-33">
          <mxGeometry x="146.68" y="17.220000000000027" width="126.35" height="42" as="geometry" />
        </mxCell>
        <mxCell id="cEreoVwPH2V9dTDcCDwE-36" value="building-geometry.js" style="whiteSpace=wrap;html=1;align=center;fillColor=#FFC957;strokeColor=#FFAD00;fontStyle=1" vertex="1" parent="cEreoVwPH2V9dTDcCDwE-33">
          <mxGeometry x="203.32999999999993" y="147.22000000000003" width="126.35" height="42" as="geometry" />
        </mxCell>
        <mxCell id="cEreoVwPH2V9dTDcCDwE-39" value="Use" style="endArrow=open;endSize=12;dashed=1;rounded=1;exitX=0.5;exitY=1;exitDx=0;exitDy=0;edgeStyle=orthogonalEdgeStyle;entryX=0.5;entryY=0;entryDx=0;entryDy=0;jumpStyle=arc;jumpSize=14;fontStyle=0;fontSize=11;labelBackgroundColor=default;labelBorderColor=none;shadow=0;verticalAlign=bottom;horizontal=1;" edge="1" parent="cEreoVwPH2V9dTDcCDwE-33" source="cEreoVwPH2V9dTDcCDwE-38" target="cEreoVwPH2V9dTDcCDwE-36">
          <mxGeometry width="160" relative="1" as="geometry">
            <mxPoint x="-136.67000000000002" y="80.30000000000007" as="sourcePoint" />
            <mxPoint x="-317.67" y="80.30000000000007" as="targetPoint" />
          </mxGeometry>
        </mxCell>
        <mxCell id="cEreoVwPH2V9dTDcCDwE-41" value="Use" style="endArrow=open;endSize=12;dashed=1;rounded=1;exitX=0.5;exitY=0;exitDx=0;exitDy=0;edgeStyle=orthogonalEdgeStyle;entryX=0;entryY=0.5;entryDx=0;entryDy=0;jumpStyle=arc;jumpSize=14;fontStyle=0;fontSize=11;labelBackgroundColor=default;labelBorderColor=none;shadow=0;verticalAlign=bottom;horizontal=1;" edge="1" parent="cEreoVwPH2V9dTDcCDwE-33" source="cEreoVwPH2V9dTDcCDwE-37" target="cEreoVwPH2V9dTDcCDwE-38">
          <mxGeometry width="160" relative="1" as="geometry">
            <mxPoint x="240.32999999999993" y="69.22000000000003" as="sourcePoint" />
            <mxPoint x="240.32999999999993" y="124.22000000000003" as="targetPoint" />
          </mxGeometry>
        </mxCell>
        <mxCell id="cEreoVwPH2V9dTDcCDwE-42" value="Use" style="endArrow=open;endSize=12;dashed=1;rounded=1;edgeStyle=orthogonalEdgeStyle;entryX=0.75;entryY=1;entryDx=0;entryDy=0;exitX=0.5;exitY=1;exitDx=0;exitDy=0;jumpStyle=arc;jumpSize=14;fontStyle=0;fontSize=11;labelBackgroundColor=default;labelBorderColor=none;shadow=0;verticalAlign=bottom;horizontal=1;" edge="1" parent="1" source="cEreoVwPH2V9dTDcCDwE-37" target="cEreoVwPH2V9dTDcCDwE-21">
          <mxGeometry width="160" relative="1" as="geometry">
            <mxPoint x="850" y="660" as="sourcePoint" />
            <mxPoint x="1116" y="616" as="targetPoint" />
            <Array as="points">
              <mxPoint x="288" y="840" />
              <mxPoint x="685" y="840" />
            </Array>
          </mxGeometry>
        </mxCell>
        <mxCell id="cEreoVwPH2V9dTDcCDwE-43" value="Use" style="endArrow=open;endSize=12;dashed=1;rounded=1;edgeStyle=orthogonalEdgeStyle;entryX=0.5;entryY=1;entryDx=0;entryDy=0;exitX=0;exitY=0.5;exitDx=0;exitDy=0;jumpStyle=arc;jumpSize=14;fontStyle=0;fontSize=11;labelBackgroundColor=default;labelBorderColor=none;shadow=0;verticalAlign=bottom;horizontal=1;" edge="1" parent="1" source="cEreoVwPH2V9dTDcCDwE-37" target="cEreoVwPH2V9dTDcCDwE-30">
          <mxGeometry width="160" relative="1" as="geometry">
            <mxPoint x="869" y="770" as="sourcePoint" />
            <mxPoint x="665" y="237" as="targetPoint" />
            <Array as="points">
              <mxPoint x="110" y="752" />
            </Array>
          </mxGeometry>
        </mxCell>
        <mxCell id="cEreoVwPH2V9dTDcCDwE-45" value="Use" style="endArrow=open;endSize=12;dashed=1;rounded=1;edgeStyle=orthogonalEdgeStyle;entryX=0.5;entryY=1;entryDx=0;entryDy=0;exitX=1;exitY=0.5;exitDx=0;exitDy=0;jumpStyle=arc;jumpSize=14;fontStyle=0;fontSize=11;labelBackgroundColor=default;labelBorderColor=none;shadow=0;verticalAlign=bottom;horizontal=1;" edge="1" parent="1" source="cEreoVwPH2V9dTDcCDwE-38" target="cEreoVwPH2V9dTDcCDwE-21">
          <mxGeometry width="160" relative="1" as="geometry">
            <mxPoint x="422" y="757" as="sourcePoint" />
            <mxPoint x="655" y="237" as="targetPoint" />
            <Array as="points">
              <mxPoint x="653" y="622" />
            </Array>
          </mxGeometry>
        </mxCell>
        <mxCell id="cEreoVwPH2V9dTDcCDwE-46" value="" style="edgeStyle=orthogonalEdgeStyle;shape=connector;rounded=1;orthogonalLoop=1;jettySize=auto;exitX=0.5;exitY=0;exitDx=0;exitDy=0;entryX=0;entryY=0.5;entryDx=0;entryDy=0;dashed=1;labelBackgroundColor=default;strokeColor=default;fontFamily=Helvetica;fontSize=11;fontColor=default;endArrow=open;endSize=12;jumpStyle=arc;jumpSize=14;fontStyle=0;labelBorderColor=none;shadow=0;verticalAlign=bottom;horizontal=1;" edge="1" parent="1" source="cEreoVwPH2V9dTDcCDwE-30" target="cEreoVwPH2V9dTDcCDwE-21">
          <mxGeometry relative="1" as="geometry">
            <Array as="points">
              <mxPoint x="110" y="206" />
            </Array>
          </mxGeometry>
        </mxCell>
        <mxCell id="cEreoVwPH2V9dTDcCDwE-47" value="" style="edgeStyle=orthogonalEdgeStyle;shape=connector;rounded=1;orthogonalLoop=1;jettySize=auto;exitX=0.5;exitY=1;exitDx=0;exitDy=0;dashed=1;labelBackgroundColor=default;strokeColor=default;fontFamily=Helvetica;fontSize=11;fontColor=default;endArrow=open;endSize=12;fontStyle=0;labelBorderColor=none;shadow=0;verticalAlign=bottom;horizontal=1;" edge="1" parent="1" source="cEreoVwPH2V9dTDcCDwE-2" target="cEreoVwPH2V9dTDcCDwE-38">
          <mxGeometry relative="1" as="geometry" />
        </mxCell>
        <mxCell id="cEreoVwPH2V9dTDcCDwE-48" value="" style="group" vertex="1" connectable="0" parent="1">
          <mxGeometry x="190" y="1040" width="350" height="466" as="geometry" />
        </mxCell>
        <mxCell id="cEreoVwPH2V9dTDcCDwE-49" value="" style="rounded=1;whiteSpace=wrap;html=1;fillColor=#3D8BCD;arcSize=9;strokeColor=#004C99;" vertex="1" parent="cEreoVwPH2V9dTDcCDwE-48">
          <mxGeometry width="350" height="233" as="geometry" />
        </mxCell>
        <mxCell id="cEreoVwPH2V9dTDcCDwE-50" value="&lt;font color=&quot;#ffffff&quot;&gt;&lt;span style=&quot;font-size: 16px;&quot;&gt;gui&lt;/span&gt;&lt;/font&gt;" style="text;html=1;strokeColor=none;fillColor=none;align=center;verticalAlign=middle;whiteSpace=wrap;rounded=0;fontStyle=1;fontSize=14;fontFamily=Courier New;" vertex="1" parent="cEreoVwPH2V9dTDcCDwE-48">
          <mxGeometry x="247.99999999999997" y="194.63424242424242" width="142.0125" height="42.36363636363637" as="geometry" />
        </mxCell>
        <mxCell id="cEreoVwPH2V9dTDcCDwE-56" value="camrender.js" style="whiteSpace=wrap;html=1;align=center;fillColor=#FFC957;strokeColor=#FFAD00;fontStyle=1" vertex="1" parent="1">
          <mxGeometry x="1280" y="680" width="130" height="42" as="geometry" />
        </mxCell>
        <mxCell id="cEreoVwPH2V9dTDcCDwE-57" value="canvas-updater.js" style="whiteSpace=wrap;html=1;align=center;fillColor=#FFC957;strokeColor=#FFAD00;fontStyle=1" vertex="1" parent="1">
          <mxGeometry x="1280" y="609" width="130" height="42" as="geometry" />
        </mxCell>
        <mxCell id="cEreoVwPH2V9dTDcCDwE-58" value="custom-draggable.js" style="whiteSpace=wrap;html=1;align=center;fillColor=#FFC957;strokeColor=#FFAD00;fontStyle=1" vertex="1" parent="1">
          <mxGeometry x="1200" y="440" width="130" height="42" as="geometry" />
        </mxCell>
        <mxCell id="cEreoVwPH2V9dTDcCDwE-59" value="hove-scale.js" style="whiteSpace=wrap;html=1;align=center;fillColor=#FFC957;strokeColor=#FFAD00;fontStyle=1" vertex="1" parent="1">
          <mxGeometry x="1200" y="520" width="130" height="42" as="geometry" />
        </mxCell>
        <mxCell id="cEreoVwPH2V9dTDcCDwE-60" value="hud.js" style="whiteSpace=wrap;html=1;align=center;fillColor=#FFC957;strokeColor=#FFAD00;fontStyle=1" vertex="1" parent="1">
          <mxGeometry x="1040" y="520" width="130" height="42" as="geometry" />
        </mxCell>
        <mxCell id="cEreoVwPH2V9dTDcCDwE-61" value="toolbar3d.js" style="whiteSpace=wrap;html=1;align=center;fillColor=#FFC957;strokeColor=#FFAD00;fontStyle=1" vertex="1" parent="1">
          <mxGeometry x="870" y="520" width="130" height="42" as="geometry" />
        </mxCell>
        <mxCell id="cEreoVwPH2V9dTDcCDwE-63" value="tooltip-info.js" style="whiteSpace=wrap;html=1;align=center;fillColor=#FFC957;strokeColor=#FFAD00;fontStyle=1" vertex="1" parent="1">
          <mxGeometry x="1040" y="600" width="130" height="42" as="geometry" />
        </mxCell>
        <mxCell id="cEreoVwPH2V9dTDcCDwE-64" value="track.js" style="whiteSpace=wrap;html=1;align=center;fillColor=#FFC957;strokeColor=#FFAD00;fontStyle=1" vertex="1" parent="1">
          <mxGeometry x="1040" y="440" width="130" height="42" as="geometry" />
        </mxCell>
        <mxCell id="cEreoVwPH2V9dTDcCDwE-65" value="" style="group;fontFamily=Helvetica;fontSize=11;fontColor=default;" vertex="1" connectable="0" parent="1">
          <mxGeometry x="1110" y="960" width="200" height="190" as="geometry" />
        </mxCell>
        <mxCell id="cEreoVwPH2V9dTDcCDwE-66" value="" style="rounded=1;whiteSpace=wrap;html=1;arcSize=9;strokeColor=#cccccc;fillColor=#F2F2F2;fontFamily=Helvetica;fontSize=11;fontColor=default;" vertex="1" parent="cEreoVwPH2V9dTDcCDwE-65">
          <mxGeometry width="200" height="190" as="geometry" />
        </mxCell>
        <mxCell id="cEreoVwPH2V9dTDcCDwE-67" value="&lt;font&gt;&lt;span style=&quot;font-size: 18px&quot;&gt;Namespace&lt;/span&gt;&lt;/font&gt;" style="text;html=1;strokeColor=none;fillColor=none;align=center;verticalAlign=middle;whiteSpace=wrap;rounded=0;fontStyle=1;fontSize=11;fontColor=default;fontFamily=Helvetica;" vertex="1" parent="cEreoVwPH2V9dTDcCDwE-65">
          <mxGeometry x="146.52450249846586" y="164.99529411764706" width="42.622950819672134" height="11.176470588235293" as="geometry" />
        </mxCell>
      </root>
    </mxGraphModel>
  </diagram>
</mxfile>
